<?xml version="1.0" encoding="UTF-8" standalone="no"?>
<svg
   width="16"
   height="16"
   viewBox="0 0 16 16"
   fill="none"
   version="1.1"
   id="svg4"
   sodipodi:docname="Channel.svg"
   inkscape:version="1.1.1 (3bf5ae0d25, 2021-09-20)"
   xmlns:inkscape="http://www.inkscape.org/namespaces/inkscape"
   xmlns:sodipodi="http://sodipodi.sourceforge.net/DTD/sodipodi-0.dtd"
   xmlns="http://www.w3.org/2000/svg"
   xmlns:svg="http://www.w3.org/2000/svg">
  <defs
     id="defs8" />
  <sodipodi:namedview
     id="namedview6"
     pagecolor="#ffffff"
     bordercolor="#999999"
     borderopacity="1"
     inkscape:pageshadow="0"
     inkscape:pageopacity="0"
     inkscape:pagecheckerboard="0"
     showgrid="false"
     inkscape:zoom="20.125"
     inkscape:cx="6.5093168"
     inkscape:cy="9.2670807"
     inkscape:window-width="1600"
     inkscape:window-height="847"
     inkscape:window-x="-8"
     inkscape:window-y="-8"
     inkscape:window-maximized="1"
     inkscape:current-layer="svg4" />
  <path
     fill-rule="evenodd"
     clip-rule="evenodd"
     d="M1 0C0.447715 0 0 0.447715 0 1V3.21053C0 3.76281 0.447715 4.21053 1 4.21053H15C15.5523 4.21053 16 3.76281 16 3.21053V1C16 0.447715 15.5523 0 15 0H1ZM15.2 1.68421H0.800013V2.68421H15.2V1.68421ZM1 5.89474C0.447715 5.89474 0 6.34245 0 6.89474V9.10526C0 9.65755 0.447715 10.1053 1 10.1053H15C15.5523 10.1053 16 9.65755 16 9.10526V6.89474C16 6.34245 15.5523 5.89474 15 5.89474H1ZM15.2 7.57894H0.800013V8.57894H15.2V7.57894ZM0 12.7895C0 12.2372 0.447715 11.7895 1 11.7895H15C15.5523 11.7895 16 12.2372 16 12.7895V15C16 15.5523 15.5523 16 15 16H1C0.447715 16 0 15.5523 0 15V12.7895ZM0.800013 13.4737H15.2V14.4737H0.800013V13.4737Z"
     fill="black"
     id="path2"
     style="fill:#c8c8c8;fill-opacity:1" />
</svg>
