<?xml version="1.0" encoding="UTF-8" standalone="no"?>
<svg
   width="16"
   height="16"
   viewBox="0 0 16 16"
   fill="none"
   version="1.1"
   id="svg6"
   sodipodi:docname="logout.svg"
   inkscape:export-filename="C:\Users\Ceira\Documents\Programming\Taiyou\TaiyouClient\public\logout.png"
   inkscape:export-xdpi="210.1918"
   inkscape:export-ydpi="210.1918"
   inkscape:version="1.1.1 (3bf5ae0d25, 2021-09-20)"
   xmlns:inkscape="http://www.inkscape.org/namespaces/inkscape"
   xmlns:sodipodi="http://sodipodi.sourceforge.net/DTD/sodipodi-0.dtd"
   xmlns="http://www.w3.org/2000/svg"
   xmlns:svg="http://www.w3.org/2000/svg">
  <defs
     id="defs10" />
  <sodipodi:namedview
     id="namedview8"
     pagecolor="#ffffff"
     bordercolor="#999999"
     borderopacity="1"
     inkscape:pageshadow="0"
     inkscape:pageopacity="0"
     inkscape:pagecheckerboard="0"
     showgrid="false"
     fit-margin-top="0"
     fit-margin-left="0"
     fit-margin-right="0"
     fit-margin-bottom="0"
     inkscape:zoom="20.125"
     inkscape:cx="2.8322981"
     inkscape:cy="10.509317"
     inkscape:window-width="1600"
     inkscape:window-height="847"
     inkscape:window-x="-8"
     inkscape:window-y="-8"
     inkscape:window-maximized="1"
     inkscape:current-layer="svg6" />
  <path
     fill-rule="evenodd"
     clip-rule="evenodd"
     d="m 14.896551,2.0018267 c 0,-0.5527845 -0.494013,-1.0009134 -1.103448,-1.0009134 H 6.6206897 c -0.3047062,0 -0.5517242,-0.22406242 -0.5517242,-0.50045663 C 6.0689655,0.22406245 6.3159835,0 6.6206897,0 H 14.896551 C 15.505986,0 16,0.4481109 16,1.0008833 v 3e-5 13.9981737 C 16,15.551891 15.505986,16 14.896551,16 H 6.6206897 c -0.3047062,0 -0.5517242,-0.224105 -0.5517242,-0.500457 0,-0.276452 0.247018,-0.500456 0.5517242,-0.500456 h 7.1724133 c 0.609435,0 1.103448,-0.448109 1.103448,-1.000914 z"
     fill="#c8c8c8"
     id="path2"
     style="stroke-width:1.05093" />
  <path
     d="M 0.5517242,7.4921867 C 0.24701572,7.4921867 0,7.7162511 0,7.9926433 0,8.2690355 0.24701572,8.4930999 0.5517242,8.4930999 Z M 10.872938,8.3465162 c 0.215393,-0.1954383 0.215393,-0.5123075 0,-0.7077459 L 7.3617324,4.4538842 c -0.2154593,-0.1954383 -0.5647889,-0.1954383 -0.7802482,0 -0.2154704,0.1954384 -0.2154704,0.5123075 0,0.7077458 L 9.702499,7.9926433 6.5814842,10.823677 c -0.2154704,0.195378 -0.2154704,0.512268 0,0.707746 0.2154593,0.195378 0.5647889,0.195378 0.7802482,0 z M 0.5517242,8.4930999 H 10.482758 V 7.4921867 H 0.5517242 Z"
     fill="#c8c8c8"
     id="path4"
     style="stroke-width:1.05093" />
</svg>
