<svg width="16" height="16" viewBox="0 0 16 16" fill="none" xmlns="http://www.w3.org/2000/svg">
<path fill-rule="evenodd" clip-rule="evenodd" d="M9.00118 1.67879L8 0L6.99882 1.67879L5.52786 0.391548L5.09446 2.29756L3.29772 1.52786L3.47452 3.47452L1.52786 3.29772L2.29756 5.09446L0.391548 5.52786L1.67879 6.99882L0 8L1.67879 9.00118L0.391548 10.4721L2.29756 10.9055L1.52786 12.7023L3.47452 12.5255L3.29772 14.4721L5.09446 13.7024L5.52786 15.6085L6.99882 14.3212L8 16L9.00118 14.3212L10.4721 15.6085L10.9055 13.7024L12.7023 14.4721L12.5255 12.5255L14.4721 12.7023L13.7024 10.9055L15.6085 10.4721L14.3212 9.00118L16 8L14.3212 6.99882L15.6085 5.52786L13.7024 5.09446L14.4721 3.29772L12.5255 3.47452L12.7023 1.52786L10.9055 2.29756L10.4721 0.391548L9.00118 1.67879ZM8.00006 12.2353C10.3392 12.2353 12.2354 10.3391 12.2354 7.99999C12.2354 5.6609 10.3392 3.7647 8.00006 3.7647C5.66098 3.7647 3.76477 5.6609 3.76477 7.99999C3.76477 10.3391 5.66098 12.2353 8.00006 12.2353Z" fill="#D9D9D9"/>
</svg>
